<svg width="600" height="75" viewBox="0 0 600 75" fill="none" xmlns="http://www.w3.org/2000/svg">
<path fill-rule="evenodd" clip-rule="evenodd" d="M186 31.3H175.2V52.2C175.2 57.8 178.9 57.7 186 57.4V65.9C171.5 67.6 165.8 63.6 165.8 52.3V31.4H157.8V22.3H165.8V10.6L175.2 7.79999V22.3H186V31.3ZM227.2 22.2H236.6V65.8H227.2V59.5C223.9 64.1 218.7 66.9 211.9 66.9C200 66.9 190.2 56.9 190.2 44C190.2 31 200.1 21.1 211.9 21.1C218.7 21.1 223.9 23.9 227.2 28.4V22.2ZM213.4 58C221.3 58 227.2 52.2 227.2 44C227.2 35.9 221.3 30 213.4 30C205.6 30 199.6 35.8 199.6 44C199.6 52.2 205.6 58 213.4 58ZM252.3 15.7C249 15.7 246.3 12.9 246.3 9.70001C246.3 6.40001 249 3.70001 252.3 3.70001C255.6 3.70001 258.3 6.40001 258.3 9.70001C258.4 12.9 255.6 15.7 252.3 15.7ZM247.6 65.8V22.2H257V65.8H247.6ZM267.9 65.8V2.10001H277.3V65.8H267.9ZM338.5 22.2H348.4L334.7 65.8H325.5L316.4 36.4L307.2 65.8H298L284.3 22.2H294.2L302.7 52.3L311.9 22.2H320.9L330 52.3L338.5 22.2ZM360.2 15.7C356.9 15.7 354.2 12.9 354.2 9.70001C354.2 6.40001 356.9 3.70001 360.2 3.70001C363.5 3.70001 366.2 6.40001 366.2 9.70001C366.2 12.9 363.5 15.7 360.2 15.7ZM355.4 65.8V22.2H364.8V65.8H355.4ZM398.7 21.1C408.5 21.1 415.5 27.7 415.5 39.1V65.9H406.1V40C406.1 33.4 402.3 29.9 396.3 29.9C390.1 29.9 385.2 33.6 385.2 42.5V65.9H375.8V22.3H385.2V27.9C388.1 23.3 392.8 21.1 398.7 21.1ZM460.1 4.79999H469.5V65.9H460.1V59.6C456.8 64.2 451.6 67 444.8 67C432.9 67 423.1 57 423.1 44.1C423.1 31.1 433 21.2 444.8 21.2C451.6 21.2 456.8 24 460.1 28.5V4.79999ZM446.4 58C454.3 58 460.2 52.2 460.2 44C460.2 35.9 454.3 30 446.4 30C438.6 30 432.6 35.8 432.6 44C432.6 52.2 438.5 58 446.4 58ZM501.1 67C487.9 67 478.1 57 478.1 44.1C478.1 31.1 488 21.2 501.1 21.2C509.7 21.2 517.1 25.6 520.6 32.5L512.5 37.2C510.6 33.1 506.3 30.5 501.1 30.5C493.4 30.5 487.6 36.3 487.6 44.2C487.6 52.1 493.4 57.9 501.1 57.9C506.3 57.9 510.6 55.2 512.7 51.2L520.8 55.8C517.1 62.5 509.7 67 501.1 67ZM536.3 34.3C536.3 42.2 559.8 37.4 559.8 53.6C559.8 62.3 552.2 67 542.8 67C534.1 67 527.8 63.1 525 56.8L533.1 52.1C534.5 56 538 58.4 542.8 58.4C547 58.4 550.2 57 550.2 53.5C550.2 45.7 526.7 50.1 526.7 34.5C526.7 26.3 533.8 21.2 542.7 21.2C549.9 21.2 555.8 24.5 558.8 30.3L550.9 34.7C549.3 31.3 546.3 29.7 542.7 29.7C539.3 29.6 536.3 31.1 536.3 34.3ZM576.5 34.3C576.5 42.2 600 37.4 600 53.6C600 62.3 592.4 67 583 67C574.3 67 568 63.1 565.2 56.8L573.3 52.1C574.7 56 578.2 58.4 583 58.4C587.2 58.4 590.4 57 590.4 53.5C590.4 45.7 566.9 50.1 566.9 34.5C566.9 26.3 574 21.2 582.9 21.2C590.1 21.2 596 24.5 599 30.3L591.1 34.7C589.5 31.3 586.5 29.7 582.9 29.7C579.5 29.6 576.5 31.1 576.5 34.3Z" fill="black"/>
<path fill-rule="evenodd" clip-rule="evenodd" d="M62 0C45.5 0 35.1 8.29999 31 24.8C37.2 16.5 44.4 13.4 52.7 15.5C57.4 16.7 60.8 20.1 64.5 23.9C70.6 30.1 77.6 37.2 93 37.2C109.5 37.2 119.9 28.9 124 12.4C117.8 20.7 110.6 23.8 102.3 21.7C97.6 20.5 94.2 17.1 90.5 13.3C84.4 7.09999 77.4 0 62 0ZM31 37.1C14.5 37.1 4.1 45.4 0 61.9C6.2 53.6 13.4 50.5 21.7 52.6C26.4 53.8 29.8 57.2 33.5 61C39.6 67.2 46.6 74.3 62 74.3C78.5 74.3 88.9 66 93 49.5C86.8 57.8 79.6 60.9 71.3 58.8C66.6 57.6 63.2 54.2 59.5 50.4C53.4 44.3 46.4 37.1 31 37.1Z" fill="#06B6D4"/>
</svg>
